<svg xmlns="http://www.w3.org/2000/svg" width="30.022" height="30" viewBox="0 0 30.022 30">
  <g id="delivery-icon" transform="translate(-0.989 -1)">
    <path id="Path_8372" data-name="Path 8372" d="M25.991,11h-20a1,1,0,0,0-1,1V28a1,1,0,0,0,.8.98l9.99,2h.01a1.01,1.01,0,0,0,.4,0h.01l9.99-2a1,1,0,0,0,.8-.98V12A1,1,0,0,0,25.991,11Z" fill="rgba(61,112,178,0.75)"/>
    <path id="Path_8373" data-name="Path 8373" d="M10.366,5.781l5,4a852.13,852.13,0,0,1,.267.147,1,1,0,0,0,.351.071H16a1,1,0,0,0,.351-.071,32338.656,32338.656,0,0,1,.266-.147l5-4a1,1,0,1,0-1.25-1.562l-3.375,2.7V2a1,1,0,0,0-2,0V6.919l-3.375-2.7a1,1,0,1,0-1.25,1.561Z" fill="#3d70b2"/>
    <path id="Path_8374" data-name="Path 8374" d="M15.991,11V31a1.355,1.355,0,0,1-.2-.02h-.01l-9.99-2a1,1,0,0,1-.8-.98V12a1,1,0,0,1,1-1Z" fill="#3d70b2"/>
    <g id="Group_8442" data-name="Group 8442">
      <path id="Path_8375" data-name="Path 8375" d="M16.871,11.53a1,1,0,0,0-1.76,0,.963.963,0,0,0,.05,1.02l.83,1.25.83-1.25A.963.963,0,0,0,16.871,11.53Z" fill="#96cee5"/>
      <path id="Path_8376" data-name="Path 8376" d="M15.161,12.55l.83,1.25-3.17,4.75a1,1,0,0,1-.83.45h-10a.984.984,0,0,1-.88-.53.963.963,0,0,1,.05-1.02l4-6a1,1,0,0,1,.83-.45h10a.984.984,0,0,0-.88.53A.963.963,0,0,0,15.161,12.55Z" fill="#96cee5"/>
    </g>
    <g id="Group_8443" data-name="Group 8443">
      <path id="Path_8377" data-name="Path 8377" d="M16.871,11.53a1,1,0,0,0-1.76,0,.963.963,0,0,0,.05,1.02l.83,1.25.83-1.25A.963.963,0,0,0,16.871,11.53Z" fill="#96cee5"/>
      <path id="Path_8378" data-name="Path 8378" d="M31.011,18a1,1,0,0,1-1,1H19.991a1,1,0,0,1-.83-.45l-3.17-4.75.83-1.25a.963.963,0,0,0,.05-1.02.984.984,0,0,0-.88-.53h10a1,1,0,0,1,.83.45l3.91,5.85A1.026,1.026,0,0,1,31.011,18Z" fill="#96cee5"/>
    </g>
  </g>
</svg>
