<svg xmlns="http://www.w3.org/2000/svg" width="30.022" height="30" viewBox="0 0 30.022 30">
  <g id="pickup-icon" transform="translate(-0.998 -1)">
    <path id="Path_8379" data-name="Path 8379" d="M26,11H6a1,1,0,0,0-1,1V28a1,1,0,0,0,.8.98l9.99,2h.01a1.01,1.01,0,0,0,.4,0h.01l9.99-2A1,1,0,0,0,27,28V12A1,1,0,0,0,26,11Z" fill="rgba(33,164,90,0.75)"/>
    <path id="Path_8380" data-name="Path 8380" d="M21.625,5.219l-5-4a.967.967,0,0,0-.148-.081.96.96,0,0,0-.119-.066A1,1,0,0,0,16.007,1h-.014a1,1,0,0,0-.351.071.953.953,0,0,0-.118.065.956.956,0,0,0-.148.082l-5,4a1,1,0,1,0,1.25,1.562L15,4.081V9a1,1,0,0,0,2,0V4.081l3.375,2.7a1,1,0,1,0,1.25-1.561Z" fill="#21a45a"/>
    <path id="Path_8381" data-name="Path 8381" d="M16,11V31a1.355,1.355,0,0,1-.2-.02h-.01l-9.99-2A1,1,0,0,1,5,28V12a1,1,0,0,1,1-1Z" fill="#21a45a"/>
    <g id="Group_8444" data-name="Group 8444">
      <path id="Path_8382" data-name="Path 8382" d="M16.88,11.53a1,1,0,0,0-1.76,0,.963.963,0,0,0,.05,1.02L16,13.8l.83-1.25A.963.963,0,0,0,16.88,11.53Z" fill="#caefdb"/>
      <path id="Path_8383" data-name="Path 8383" d="M15.17,12.55,16,13.8l-3.17,4.75A1,1,0,0,1,12,19H2a.984.984,0,0,1-.88-.53.963.963,0,0,1,.05-1.02l4-6A1,1,0,0,1,6,11H16a.984.984,0,0,0-.88.53A.963.963,0,0,0,15.17,12.55Z" fill="#caefdb"/>
    </g>
    <g id="Group_8445" data-name="Group 8445">
      <path id="Path_8384" data-name="Path 8384" d="M16.88,11.53a1,1,0,0,0-1.76,0,.963.963,0,0,0,.05,1.02L16,13.8l.83-1.25A.963.963,0,0,0,16.88,11.53Z" fill="#caefdb"/>
      <path id="Path_8385" data-name="Path 8385" d="M31.02,18a1,1,0,0,1-1,1H20a1,1,0,0,1-.83-.45L16,13.8l.83-1.25a.963.963,0,0,0,.05-1.02A.984.984,0,0,0,16,11H26a1,1,0,0,1,.83.45l3.91,5.85A1.026,1.026,0,0,1,31.02,18Z" fill="#caefdb"/>
    </g>
  </g>
</svg>
