<svg width="19" height="28" viewBox="0 0 19 28" fill="none" xmlns="http://www.w3.org/2000/svg">
<g clip-path="url(#clip0_704_2)">
<path opacity="0.5" d="M9.1123 27.113C12.426 27.113 15.1123 25.9937 15.1123 24.613C15.1123 23.2323 12.426 22.113 9.1123 22.113C5.7986 22.113 3.1123 23.2323 3.1123 24.613C3.1123 25.9937 5.7986 27.113 9.1123 27.113Z" fill="#8C9BA5" fill-opacity="0.75"/>
<path d="M9.112 0.499972C6.85294 0.483926 4.6793 1.36239 3.06574 2.94354C1.45218 4.52469 0.529793 6.68005 0.5 8.93897C0.5 15.269 9.112 24.612 9.112 24.612C9.112 24.612 17.724 15.268 17.724 8.93897C17.6942 6.68005 16.7718 4.52469 15.1583 2.94354C13.5447 1.36239 11.3711 0.483926 9.112 0.499972Z" fill="#00DB61" stroke="#53A979"/>
<path d="M9 13.5C11.4853 13.5 13.5 11.4853 13.5 9C13.5 6.51472 11.4853 4.5 9 4.5C6.51472 4.5 4.5 6.51472 4.5 9C4.5 11.4853 6.51472 13.5 9 13.5Z" fill="white"/>
<path d="M9 13C11.2091 13 13 11.2091 13 9C13 6.79086 11.2091 5 9 5C6.79086 5 5 6.79086 5 9C5 11.2091 6.79086 13 9 13Z" stroke="white"/>
</g>
<defs>
<clipPath id="clip0_704_2">
<rect width="18.223" height="27.113" fill="white"/>
</clipPath>
</defs>
</svg>
