<?xml version="1.0" encoding="UTF-8" standalone="no"?>
<svg
   xmlns:dc="http://purl.org/dc/elements/1.1/"
   xmlns:cc="http://creativecommons.org/ns#"
   xmlns:rdf="http://www.w3.org/1999/02/22-rdf-syntax-ns#"
   xmlns:svg="http://www.w3.org/2000/svg"
   xmlns="http://www.w3.org/2000/svg"
   xmlns:sodipodi="http://sodipodi.sourceforge.net/DTD/sodipodi-0.dtd"
   xmlns:inkscape="http://www.inkscape.org/namespaces/inkscape"
   width="17.5"
   height="20"
   viewBox="0 0 17.5 20"
   version="1.1"
   id="svg4"
   sodipodi:docname="calendar.svg"
   inkscape:version="1.0 (4035a4fb49, 2020-05-01)">
  <metadata
     id="metadata10">
    <rdf:RDF>
      <cc:Work
         rdf:about="">
        <dc:format>image/svg+xml</dc:format>
        <dc:type
           rdf:resource="http://purl.org/dc/dcmitype/StillImage" />
      </cc:Work>
    </rdf:RDF>
  </metadata>
  <defs
     id="defs8" />
  <sodipodi:namedview
     inkscape:document-rotation="0"
     pagecolor="#ffffff"
     bordercolor="#666666"
     borderopacity="1"
     objecttolerance="10"
     gridtolerance="10"
     guidetolerance="10"
     inkscape:pageopacity="0"
     inkscape:pageshadow="2"
     inkscape:window-width="1920"
     inkscape:window-height="1001"
     id="namedview6"
     showgrid="false"
     inkscape:zoom="29.344931"
     inkscape:cx="4.1200406"
     inkscape:cy="11.397347"
     inkscape:window-x="-9"
     inkscape:window-y="-9"
     inkscape:window-maximized="1"
     inkscape:current-layer="svg4" />
  <path
     d="m 1.32689,16.892888 a 1.5906664,1.5906664 0 0 0 1.5906664,1.590666 H 14.582443 A 1.5906664,1.5906664 0 0 0 16.17311,16.892888 V 7.8791116 H 1.32689 Z M 3.4477785,10.530222 A 0.53191884,0.53191884 0 0 1 3.9780007,10 h 3.1813327 a 0.53191884,0.53191884 0 0 1 0.5302222,0.530222 v 3.181333 A 0.53191884,0.53191884 0 0 1 7.1593334,14.241777 H 3.9780007 A 0.53191884,0.53191884 0 0 1 3.4477785,13.711555 Z M 14.582443,3.6373345 H 12.991777 V 2.0466681 A 0.53191884,0.53191884 0 0 0 12.461555,1.516446 H 11.40111 A 0.53191884,0.53191884 0 0 0 10.870888,2.0466681 V 3.6373345 H 6.6291113 V 2.0466681 A 0.53191884,0.53191884 0 0 0 6.0988892,1.516446 H 5.0384449 A 0.53191884,0.53191884 0 0 0 4.5082228,2.0466681 V 3.6373345 H 2.9175564 A 1.5906664,1.5906664 0 0 0 1.32689,5.2280009 V 6.8186673 H 16.17311 V 5.2280009 A 1.5906664,1.5906664 0 0 0 14.582443,3.6373345 Z"
     fill="#4075ac"
     id="path2"
     style="fill:#717c8f;fill-opacity:1;stroke-width:0.999999" />
</svg>
