<svg xmlns="http://www.w3.org/2000/svg" width="28" height="19.599" viewBox="0 0 28 19.599">
  <path id="Icon_awesome-box-open" data-name="Icon awesome-box-open" d="M18.622,12.048a2.121,2.121,0,0,1-1.811-1.024L14,6.361l-2.809,4.663a2.128,2.128,0,0,1-1.816,1.028,2.012,2.012,0,0,1-.582-.083L2.8,10.255v7.787A1.4,1.4,0,0,0,3.857,19.4l9.458,2.367a2.844,2.844,0,0,0,1.356,0L24.139,19.4A1.4,1.4,0,0,0,25.2,18.042V10.255L19.2,11.965A2.012,2.012,0,0,1,18.622,12.048Zm9.3-4.908-2.253-4.5a.715.715,0,0,0-.731-.389L14,3.649,18.01,10.3a.719.719,0,0,0,.809.319l8.658-2.472A.721.721,0,0,0,27.923,7.14Zm-25.6-4.5L.073,7.14A.713.713,0,0,0,.515,8.146l8.658,2.472a.719.719,0,0,0,.809-.319L14,3.649,3.052,2.253a.715.715,0,0,0-.726.389Z" transform="translate(0.003 -2.247)" fill="rgba(55,71,97,0.75)"/>
</svg>
