<svg xmlns="http://www.w3.org/2000/svg" width="17.384" height="12.185" viewBox="0 0 17.384 12.185">
  <g id="speedometer" transform="translate(0 0)">
    <g id="Group_72" data-name="Group 72" transform="translate(0 0)">
      <path id="Path_67" data-name="Path 67" d="M11.473,77.006A8.678,8.678,0,0,0,0,85.264a13.276,13.276,0,0,0,.348,3.129.374.374,0,0,0,.348.348H16.6a.578.578,0,0,0,.435-.348,20.266,20.266,0,0,0,.348-3.129A8.612,8.612,0,0,0,11.473,77.006Zm-2.781,1.3a.869.869,0,1,1,0,1.738.869.869,0,1,1,0-1.738ZM2.608,86.133a.869.869,0,0,1,0-1.738.869.869,0,0,1,0,1.738Zm2.434-4.52a.84.84,0,0,1-1.217,0,1.051,1.051,0,0,1-.087-1.3.84.84,0,0,1,1.217,0A1.051,1.051,0,0,1,5.041,81.613ZM8.692,87c-.956,0-1.825-.869-1.565-1.738s1.565-3.477,1.565-3.477,1.3,2.608,1.565,3.477S9.648,87,8.692,87Zm4.954-5.389a.86.86,0,1,1,0-1.217A1.042,1.042,0,0,1,13.646,81.613Zm1.13,4.52a.869.869,0,1,1,.869-.869A.821.821,0,0,1,14.776,86.133Z" transform="translate(0 -76.555)" fill="rgba(55,71,97,0.75)"/>
    </g>
  </g>
</svg>
