<svg id="omw" xmlns="http://www.w3.org/2000/svg" width="17.385" height="17.385" viewBox="0 0 17.385 17.385">
  <g id="Group_1879" data-name="Group 1879">
    <g id="Group_1878" data-name="Group 1878">
      <path id="Path_1018" data-name="Path 1018" d="M8.692,0a8.692,8.692,0,1,0,8.692,8.692A8.7,8.7,0,0,0,8.692,0Zm0,15.873a7.181,7.181,0,1,1,7.181-7.181A7.189,7.189,0,0,1,8.692,15.873Z" fill="rgba(55,71,97,0.75)"/>
    </g>
  </g>
  <g id="Group_1881" data-name="Group 1881" transform="translate(4.535 4.535)">
    <g id="Group_1880" data-name="Group 1880">
      <path id="Path_1019" data-name="Path 1019" d="M136.188,128.1a.375.375,0,0,0-.416-.08l-5.291,2.268a.379.379,0,0,0-.2.2l-2.268,5.291a.377.377,0,0,0,.08.417.383.383,0,0,0,.268.11.4.4,0,0,0,.149-.03l5.291-2.268a.381.381,0,0,0,.2-.2l2.268-5.291A.379.379,0,0,0,136.188,128.1Zm-4.047,4.8a.756.756,0,1,1,.756-.756A.757.757,0,0,1,132.141,132.9Z" transform="translate(-127.984 -127.991)" fill="rgba(55,71,97,0.75)"/>
    </g>
  </g>
</svg>
